<svg xmlns:dc="http://purl.org/dc/elements/1.1/" xmlns:cc="http://creativecommons.org/ns#" xmlns:rdf="http://www.w3.org/1999/02/22-rdf-syntax-ns#" xmlns:svg="http://www.w3.org/2000/svg" xmlns="http://www.w3.org/2000/svg" viewBox="0 0 762 762" fill="none"><metadata><rdf:RDF><cc:Work><dc:format>image/svg+xml</dc:format><dc:type rdf:resource="http://purl.org/dc/dcmitype/StillImage"/><dc:title>Adventurer</dc:title><dc:creator><cc:Agent><dc:title>Lisa Wischofsky</dc:title></cc:Agent></dc:creator><dc:source>https://www.instagram.com/lischis_adventures/</dc:source><cc:license rdf:resource="https://creativecommons.org/licenses/by/4.0/"/></cc:Work><cc:License rdf:about="https://creativecommons.org/licenses/by/4.0/"><cc:permits rdf:resource="https://creativecommons.org/ns#Reproduction"/><cc:permits rdf:resource="https://creativecommons.org/ns#Distribution"/><cc:permits rdf:resource="https://creativecommons.org/ns#DerivativeWorks"/><cc:requires rdf:resource="https://creativecommons.org/ns#Notice"/><cc:requires rdf:resource="https://creativecommons.org/ns#Attribution"/></cc:License></rdf:RDF></metadata><mask id="avatarsRadiusMask"><rect width="762" height="762" rx="0" ry="0" x="0" y="0" fill="#fff"/></mask><g mask="url(#avatarsRadiusMask)"><path d="M396.01 164.85c37.82 4.9 74.21 19.64 104.8 42.39 6.15 4.84 12.48 9.33 18.02 14.92 23.77 21.98 42.73 49.02 55.13 78.95 9.35 22.31 14.72 46.04 16.64 70.14 6.62.81 13.05 2.14 19.12 5 15.54 6.93 27.08 20.94 31.78 37.21 2.63 9.56 3.56 19.75 1.72 29.55-2.96 18.76-13.72 36.13-29.37 46.92-10.94 7.65-24.49 12.03-37.86 11.68-5.13-.05-10.04-1.6-15.13-1.79-1.85 2.17-3.23 4.84-4.76 7.25-18.66 29.62-44.57 54.51-74.64 72.4-28.1 16.73-59.9 27.16-92.46 30.32-11.08.7-21.87 2.05-32.98.74-51.69-2.3-102.07-23.44-140.15-58.43-29.03-26.55-50.84-60.83-62.54-98.39-7.09-22.85-10.62-46.78-10.07-70.71.52-40.34 12.53-80.58 33.94-114.76 19.1-30.81 45.91-56.58 77.2-74.83 29.63-17.28 63.35-27.68 97.59-29.87 14.66-1.47 29.44-.37 44.02 1.31Z" fill="#000"/><path d="M363 169.06c48.47-1.39 97.32 14.7 135.81 44.12 6.55 4.06 11.72 9.49 17.36 14.64 24.33 22.63 43.2 50.95 54.93 82.02 7.43 19.61 11.86 40.2 13.56 61.09-8.89.74-17.34 2.34-25.38 6.38-2.19 1.03-1.89 4.95.68 5.23 2.35.23 4.98-1.51 7.24-2.2 14.62-5.37 31.32-4.35 44.78 3.68 11.69 6.78 20.09 18.16 23.89 31.06 2.6 8.25 2.68 17.41 1.76 25.95-2.5 17.35-12.35 33.73-26.73 43.81-15.71 11.33-37.17 14.64-54.93 6.2-3.17-1.43-5.94-3.58-9.08-5.05-2.95-1.09-4.88 2.79-2.7 4.75 3.17 2.76 7.34 4.52 11 6.56-20.14 34.15-49.45 62.7-84.41 81.47-30.2 16.31-64.44 25.53-98.78 26.15-27.63.72-55.33-4.04-81.21-13.72-30.32-11.24-57.84-29.43-80.37-52.6-22.67-23.37-39.92-51.88-50.2-82.77-14.96-44.64-14.91-94.01.27-138.59 11.05-33.06 30.28-63.21 55.37-87.39 29.67-28.73 67.65-48.54 108.13-56.67 12.8-2.52 25.94-4.24 39.01-4.12Z" fill="rgba(158, 86, 34, 1)"/><path d="M605.03 404.4c2.63-.1 3.44 3.8 1.36 4.98-3.69 1.83-7.82 2.77-11.64 4.35-5.82 2.04-11.28 4.76-16.68 7.72 4.29 2.34 8.86 4.74 12.71 7.76 2.58 2.09 4.85 4.35 5.33 7.8-.26 3.59-2.73 6.55-5.45 8.69-5.86 4.66-13.92 7.18-20.79 10.26-1.75.62-4.43 1.99-5.59-.26-1.02-1.74-.06-3.11 1.57-3.87 6.65-3.3 14.86-5.62 20.79-10.16 1.37-1.14 3.39-2.74 3.61-4.62-4.07-5.63-12.42-8.59-18.23-12.09-2.34-1.72-2.29-4.24-.16-6.13 7.27-5.64 16.98-9.26 25.57-12.38 2.42-.83 5.03-1.95 7.6-2.05Z" fill="#000"/><g transform="translate(-161 -83)"><path d="M554.99 424.09c15.56-.47 31.18 4.79 43.19 14.7 9.2 7.44 16.2 17.65 20.32 28.71 2.1 5.56 2.58 11.13 3.64 16.92-1.32 1.48-1.69 3.34-4.05 3.02-7.04-.31-13.96-2.04-21.03-2.22-8.77-.09-17.381-.37-26.091.95-9.84 1.63-19.519 2.64-29.069 5.72-11.24 3.04-22.07 7.25-32.49 12.45-3.36 1.62-6.47 3.76-9.89 5.22-2.08.77-4.42.35-5.29-1.92-2.28-7.19-2.82-15.19-2.45-22.69.94-15.99 8.12-31.4 19.67-42.5 11.64-11.32 27.3-17.95 43.54-18.36Z" fill="#000"/><path d="M557 429.85c15.33-.23 30.41 6.15 41.39 16.75 9.87 9.5 15.83 22.19 17.69 35.7-14.89-2.86-29.99-3.76-45.11-2.49-5.99.69-11.93 1.87-17.87 2.88-.91-3.26-1.74-6.35-3.55-9.25-5.97-9.96-19.33-15.24-30.34-11.14-7.24 2.35-13.12 7.85-15.96 14.91-3.08 7.37-2.28 15.5 1.22 22.59-1.92.97-3.83 1.94-5.74 2.91-5.12-21.71 3.1-45.53 20.44-59.53 10.54-8.6 24.19-13.57 37.83-13.33Z" fill="#fff"/><path d="M411.45 452.57c13.11 6.46 23.28 18.27 27.77 32.17 3.17 9.49 3.14 19.25 1.59 29.04-.96.52-1.92 1.05-2.88 1.57-9.78-2.77-19.77-4.68-29.91-5.44-17.91-1.13-36.17-1.69-54.05.02-6.9.17-13.47 2.03-20.42 1.58-.89-2.44-1.7-4.84-1.7-7.47-.18-10.31 2.22-20.81 7.45-29.76 6.91-12.04 18.47-21.18 31.78-25.14 13.26-4.05 27.97-2.75 40.37 3.43Z" fill="#000"/><path d="M397.24 453.61c10.7 2.33 20.53 8.2 27.52 16.64 8.89 10.61 13 24.91 11.07 38.62-4.06-1.25-8.12-2.4-12.33-3.02-12.45-1.82-25.08-2.6-37.65-2.38-.06-3.82.07-7.39-1.47-10.98-3-7.74-10.12-13.39-18.35-14.5-10.08-1.52-20.42 4.34-24.35 13.74-2.23 4.9-1.78 9.64-1.96 14.85-1.73-1.26-1.94-1.37-1.99-3.52-.54-12.06 4.06-24.34 11.92-33.45 11.49-13.49 30.27-19.84 47.59-16Z" fill="#fff"/></g><g transform="translate(-161 -83)"><g fill="#000"><path d="M501.99 384.96c9.91.12 19.87 3.23 28.83 7.31 3.36 1.88 7.05 4.01 7.31 8.29-5.14-.86-10.14-2.06-15.38-2.28-11.6-.68-23.13 1.36-33.25 7.23-2.54 1.41-4.95 3.26-7.64 4.35-1.8.27-3.92-1.99-3.94-3.73-.18-5.81 1.95-11.92 6.53-15.7 5.03-4.23 11.15-5.3 17.54-5.47ZM414.03 402.61c5.81.15 10.93 5.3 12.51 10.64.8 2.63-.46 5.72-3.53 5.61-8.82.21-18.21.03-26.81 2.26-7.52 2.01-14.74 6.71-21.36 10.74-1.22.81-2.57.96-3.98 1.22.33-1.93.64-3.66 1.94-5.21 3.28-4.33 6.78-8.58 10.74-12.3 5.88-5.17 13.01-8.96 20.32-11.66 3.23-1.11 6.76-1.58 10.17-1.3Z"/></g></g><g transform="translate(-161 -83)"><path d="M517 555.43c13.39-.24 28.69 3.46 38.6 12.98 5.97 5.58 9.72 13.37 9.9 21.58.32 10.21-3.84 19.58-9.89 27.58-9.04 11.85-21.87 20.72-35.47 26.57-7.32 2.84-14.41 5.71-22.15 7.24-16.76 3.21-34.33 1.42-50.03-5.31-13.98-6.01-27.24-14.24-38.31-24.71-5.42-5.3-10.58-11.69-13.28-18.84-2.03-5.48-2.34-11.97 1.22-16.91 3.7-5.37 9.99-7.74 16.18-8.84 12.6-1.77 24.45.42 36.57 3.76 7.36-6.86 15.88-12.06 25.02-16.21 12.99-5.74 27.38-9.28 41.64-8.89Z" fill="#000"/><path d="M542.47 566.35c-3.47 2.67-7.33 4.74-10.83 7.34-4.3 4.07-7.59 10.96-12.77 14.1-5.16.84-10.5-3.32-15.18-1.11-9.25 3.5-18.79 6.01-28.49 7.9-14.14 2.57-29.48 3.77-43.64.89-4.29-1.11-7.12 1.32-11.46 1.88-4.37-4.22-7.53-9.21-12.73-12.59 12.76-5.32 28.76-1.99 41.63 1.51 3.92 1.25 6.04-2.46 8.8-4.48 13.48-10.73 30.18-17.54 47.23-19.85 12.66-1.87 25.64-.74 37.44 4.41Z" fill="#fff"/><path d="M547.96 569.91c7.13 4.29 11.65 12.83 11.82 21.09-.18 7.44-2.97 13.99-6.8 20.24-6.37-2.56-13.17-3.29-19.99-2.88-14.36.89-28.54 4.42-41.91 9.67-9.04 3.64-18.05 8.23-25.74 14.27-3.77 2.98-6.45 6.16-8.76 10.38-7.74-2.15-14.6-5.75-21.53-9.73-9.94-5.85-19.02-12.62-26.5-21.47-3.77-4.64-7.55-10.34-7.78-16.49-.14-2.33.91-4.43 1.72-6.55 5.41 3.65 9.36 8.64 14.22 12.85 4 3.41 9.21-.65 13.75.08 5.81.96 11.66 1.41 17.53 1.74 20.42-.25 40.58-4.31 59.65-11.55 4.16.86 9.89 2.73 13.97 1.05 4.92-2.84 8.62-8.58 12.18-12.91 1.47-1.75 3.81-2.92 5.71-4.17 2.91-1.75 5.48-4.02 8.46-5.62Z" fill="#8F2E45"/><path d="M536 614.18c4.54-.11 8.95.63 13.3 1.9-9.23 11.12-22.42 19.3-35.85 24.38-16.26 6.04-34.23 8.32-51.21 3.94 1.95-2.75 4.09-5.3 6.76-7.39 8.9-7.26 20.21-12.2 30.99-15.97 11.5-3.83 23.86-6.67 36.01-6.86Z" fill="#EA869E"/></g><g transform="translate(-161 -83)"/><g transform="translate(-161 -83)"><path d="M453.2 221.61c2.21-.27 4.98-1.02 6.98.24 1.24 1.36 1.45 3.15.26 4.63-1.79 2.14-4.27 3.78-6.41 5.56-3.41 2.7-6.44 5.78-9.34 9.02 42.11-10.14 86.31-12.16 129.32-7.8 29.11 3.23 59.17 9.68 85.96 21.78 14.5 6.6 29.04 15.29 39.91 27.1 8.19 8.82 13.87 19.65 14.68 31.81 4.11.73 8.02 1.54 11.52 3.93 7.77 5.07 13.16 13.9 16.87 22.21 6.17 13.97 9.48 29.58 11.32 44.68 1.44 14.22 2.28 28.42 1.41 42.71-.77 9.55-1.26 19.04-2.9 28.5-.31 1.34-.38 2.48-1.9 2.96-6.68.79-14.42.76-20.72 3.28-8.91 3.44-17.56 7.19-25.67 12.28-1.32.69-2.96 1.95-4.49 1.71-2.19-.24-3.37-2.51-2.32-4.48 2.53-5.43 5.76-10.57 8.68-15.8-6.02 2.64-12.06 5.11-17.67 8.58-1.73-1.26-3.39-2.16-3.59-4.51-.8-10.39-.59-21.07-1.62-31.42-1.37-1.32-3.04-2.36-4.6-3.44-6.33-4.24-12.39-8.86-18.09-13.93-1.62-1.44-3.07-3.01-4.02-4.98-10.46-23.77-17.68-48.87-19.99-74.79-7.84-.12-15.53-.68-23.31-1.64 1.97 1.75 4.83 3.53 5.6 6.16-.59 2.42-2.44 3.03-4.5 3.91-16.3 6.38-34.16 8.45-51.57 8.32-28.17-.34-56.38-6.53-82.39-17.28 3.54 3.97 7.07 7.88 11.18 11.29 1.55 1.39 3.59 2.88 4.44 4.81-.4 2.74-2.48 4.16-5.19 3.87-17.56-1.57-34.69-4.94-51.98-8.28-.03 5.89 1.26 11.62 1.58 17.47-.53 2.09-3.1 2.4-4.66 1.39-1.51-.97-2.78-2.13-4.07-3.36-8.85-8.62-17.57-16.99-25.34-26.64-1.33-1.43-2.64-3.63-4.73-3.82-7.55-1.08-15.23-2.38-22.85-2.53-4.05-.32-8.11 2.52-11.73 4.14-3.99 2.2-8.7 3.84-12.19 6.76-3.79 4.64-6.91 9.88-10.25 14.84-.45.79-1.04 1.28-1.77 1.49-8.33-1.12-16.34-5.15-22.4-10.97-9.12-8.72-13.66-19.69-17.66-31.41-.54-2.03-1.27-4.85.9-6.18 1.83-1.13 4.53.36 6.3 1.04 6.38 3.09 12.35 6.6 19.33 8.27-2.34-6.14-3.46-12.38-1.98-18.89 2.68-16.01 11.76-30.26 24.41-40.28 3.04-2.34 6.36-5.05 10.04-6.27 2.8-.94 5.11 1.61 4.52 4.34-1.28 5.31-3.56 10.35-5 15.63 12.4-11.21 24.93-21.55 39.94-29.18 16.29-8.48 33.75-13.53 51.75-16.83Z" fill="#000"/><path d="M450.12 228.04c-5.19 4.72-9.97 9.43-13.78 15.38-.84 1.16-1.07 2.4-.7 3.73 1.82 1.82 3.7 1.07 5.9.67 40.59-10.55 83.76-13.02 125.46-9.5 29.47 2.8 59.86 8.8 87.18 20.45 13.59 5.88 27.45 13.55 38.15 23.91 7.48 7.21 13.64 15.93 15.7 26.28.69 2.94.11 6.71 1.67 9.32 1.38 2.44 3.94 1.6 6.35 2.06 5.02.19 9.74 4.04 12.91 7.67 6.53 7.69 10.68 17.91 13.56 27.48 3.87 13.13 5.96 26.89 7.01 40.51 1.03 19.32.63 38.69-2.14 57.86-6.56.8-12.89.91-19.19 3.2-7.35 1.85-14.27 5.92-21.2 9.18 2.07-3.71 4.38-7.45 5.96-11.39.67-1.68.76-3.07.12-4.77-2.01-1.54-4.06-1.01-6.22-.2-5.46 2.18-10.8 4.68-16.04 7.32-.85-10.21-.82-20.99-1.73-31.14-2.41-2.88-6.24-4.63-9.23-6.9-5.8-4.16-12.24-8.34-17.08-13.59a291.93 291.93 0 0 1-15-42.52c-2.78-11.4-5.34-23.23-5.7-34.98-.92-1.52-3.34-2.06-4.99-2.14-8.91-.26-18.33-.36-27.06-2.22-2.29-.55-4.42-.8-6.06-2.66-3.42-3.13-6.26-7.32-10.13-9.86-3.03-.65-4.48 2.19-2.62 4.5 6.25 6.77 12.88 13.28 19.87 19.27-15.08 5.76-32.04 7.59-48.09 7.61-30.09-.71-60.12-7.57-87.45-20.24-2.3-1.02-3.76-1.09-5.88.4-1.33 2.51.15 4.05 1.6 5.97 4.64 5.53 9.78 10.68 14.87 15.79-15.12-1.45-30.18-4.47-45.13-7.15-2.79-.56-5.77-.2-6.82 2.83-1.02 4.14-.1 9.02.48 13.21-7.48-7.47-15.14-15.06-21.84-23.23-5.32-6.4-10.39-12.98-15.47-19.56-.91-1.12-2.52-2.88-4.12-2.26-2.13.55-2.2 2.92-1.22 4.55 1.98 3.1 4.46 5.9 6.62 8.88-6-1.22-12.07-1.31-18.12-2.13-2.31-.23-4.35-.76-6.51.38-7.37 3.44-14.7 7.11-21.78 11.11-4.25 4.28-7.22 10.11-10.72 15.05-6.07-1.3-11.71-4.17-16.25-8.42-8.32-7.58-12.19-17.05-16.16-27.3 6.67 3.15 14.39 7.66 21.89 7.81 2.18-.02 5.06.24 6.31-1.98 1.18-1.78-.38-2.92-1.28-4.33-3.47-4.3-3.4-10.18-2.97-15.39 2.34-17.31 12.85-31.59 26.82-41.58-2.03 6.47-4.54 13.3-4.96 20.11-.26 3.05 3.27 4.11 5.21 2.08 12.54-12.42 26.66-24.43 42.32-32.72 14.98-8.07 31.05-13.04 47.68-16.41Z" fill="rgba(219, 163, 190, 1)"/><path d="M712.34 472.27c2.12-1.15 4.61 1.35 3.65 3.55-1.63 1.76-4.04 2.94-6.12 4.12-6.07 3.25-11.97 6.8-17.87 10.35-.9-.36-1.8-.73-2.7-1.09.23-1.3-.04-2.88 1.1-3.78 3.09-2.65 6.94-4.47 10.4-6.6 3.86-2.15 7.59-4.59 11.54-6.55Z" fill="#000"/></g></g></svg>