<svg xmlns:dc="http://purl.org/dc/elements/1.1/" xmlns:cc="http://creativecommons.org/ns#" xmlns:rdf="http://www.w3.org/1999/02/22-rdf-syntax-ns#" xmlns:svg="http://www.w3.org/2000/svg" xmlns="http://www.w3.org/2000/svg" viewBox="0 0 762 762" fill="none"><metadata><rdf:RDF><cc:Work><dc:format>image/svg+xml</dc:format><dc:type rdf:resource="http://purl.org/dc/dcmitype/StillImage"/><dc:title>Adventurer</dc:title><dc:creator><cc:Agent><dc:title>Lisa Wischofsky</dc:title></cc:Agent></dc:creator><dc:source>https://www.instagram.com/lischis_adventures/</dc:source><cc:license rdf:resource="https://creativecommons.org/licenses/by/4.0/"/></cc:Work><cc:License rdf:about="https://creativecommons.org/licenses/by/4.0/"><cc:permits rdf:resource="https://creativecommons.org/ns#Reproduction"/><cc:permits rdf:resource="https://creativecommons.org/ns#Distribution"/><cc:permits rdf:resource="https://creativecommons.org/ns#DerivativeWorks"/><cc:requires rdf:resource="https://creativecommons.org/ns#Notice"/><cc:requires rdf:resource="https://creativecommons.org/ns#Attribution"/></cc:License></rdf:RDF></metadata><mask id="avatarsRadiusMask"><rect width="762" height="762" rx="0" ry="0" x="0" y="0" fill="#fff"/></mask><g mask="url(#avatarsRadiusMask)"><path d="M396.01 164.85c37.82 4.9 74.21 19.64 104.8 42.39 6.15 4.84 12.48 9.33 18.02 14.92 23.77 21.98 42.73 49.02 55.13 78.95 9.35 22.31 14.72 46.04 16.64 70.14 6.62.81 13.05 2.14 19.12 5 15.54 6.93 27.08 20.94 31.78 37.21 2.63 9.56 3.56 19.75 1.72 29.55-2.96 18.76-13.72 36.13-29.37 46.92-10.94 7.65-24.49 12.03-37.86 11.68-5.13-.05-10.04-1.6-15.13-1.79-1.85 2.17-3.23 4.84-4.76 7.25-18.66 29.62-44.57 54.51-74.64 72.4-28.1 16.73-59.9 27.16-92.46 30.32-11.08.7-21.87 2.05-32.98.74-51.69-2.3-102.07-23.44-140.15-58.43-29.03-26.55-50.84-60.83-62.54-98.39-7.09-22.85-10.62-46.78-10.07-70.71.52-40.34 12.53-80.58 33.94-114.76 19.1-30.81 45.91-56.58 77.2-74.83 29.63-17.28 63.35-27.68 97.59-29.87 14.66-1.47 29.44-.37 44.02 1.31Z" fill="#000"/><path d="M363 169.06c48.47-1.39 97.32 14.7 135.81 44.12 6.55 4.06 11.72 9.49 17.36 14.64 24.33 22.63 43.2 50.95 54.93 82.02 7.43 19.61 11.86 40.2 13.56 61.09-8.89.74-17.34 2.34-25.38 6.38-2.19 1.03-1.89 4.95.68 5.23 2.35.23 4.98-1.51 7.24-2.2 14.62-5.37 31.32-4.35 44.78 3.68 11.69 6.78 20.09 18.16 23.89 31.06 2.6 8.25 2.68 17.41 1.76 25.95-2.5 17.35-12.35 33.73-26.73 43.81-15.71 11.33-37.17 14.64-54.93 6.2-3.17-1.43-5.94-3.58-9.08-5.05-2.95-1.09-4.88 2.79-2.7 4.75 3.17 2.76 7.34 4.52 11 6.56-20.14 34.15-49.45 62.7-84.41 81.47-30.2 16.31-64.44 25.53-98.78 26.15-27.63.72-55.33-4.04-81.21-13.72-30.32-11.24-57.84-29.43-80.37-52.6-22.67-23.37-39.92-51.88-50.2-82.77-14.96-44.64-14.91-94.01.27-138.59 11.05-33.06 30.28-63.21 55.37-87.39 29.67-28.73 67.65-48.54 108.13-56.67 12.8-2.52 25.94-4.24 39.01-4.12Z" fill="rgba(118, 57, 0, 1)"/><path d="M605.03 404.4c2.63-.1 3.44 3.8 1.36 4.98-3.69 1.83-7.82 2.77-11.64 4.35-5.82 2.04-11.28 4.76-16.68 7.72 4.29 2.34 8.86 4.74 12.71 7.76 2.58 2.09 4.85 4.35 5.33 7.8-.26 3.59-2.73 6.55-5.45 8.69-5.86 4.66-13.92 7.18-20.79 10.26-1.75.62-4.43 1.99-5.59-.26-1.02-1.74-.06-3.11 1.57-3.87 6.65-3.3 14.86-5.62 20.79-10.16 1.37-1.14 3.39-2.74 3.61-4.62-4.07-5.63-12.42-8.59-18.23-12.09-2.34-1.72-2.29-4.24-.16-6.13 7.27-5.64 16.98-9.26 25.57-12.38 2.42-.83 5.03-1.95 7.6-2.05Z" fill="#000"/><g transform="translate(-161 -83)"><path d="M556 424.07c14.74-.22 29.47 4.69 41.05 13.82 18.48 14.28 28.19 38.59 24.23 61.66-.97 7.55-3.91 14.28-6.79 21.23-1.41.65-2.88 1.52-4.42 1.77-2.33.07-4.8-.91-7.04-1.55-15.9-4.89-32.42-7.29-49.03-7.62-15.06.4-29.61 2.56-43.09 9.64-3.06 1.28-5.83 4.03-8.97 1.26-8.58-12.42-11.56-28.46-9.81-43.32 1.88-14.82 8.94-28.76 19.83-39 11.84-11.27 27.69-17.72 44.04-17.89Z" fill="#000"/><path d="M557 429.85c13.7-.2 27.09 4.84 37.68 13.45 9.3 7.59 16.22 18.13 19.44 29.7 4.21 14.33 2.58 30.26-4.3 43.51-5.35-.61-10.17-2.65-15.46-3.78-16.05-3.75-32.92-5.8-49.39-4.47-14.09.98-26.96 4.71-39.29 11.59-7.06-12.12-10.21-26.98-7.46-40.82 2.58-15.15 11.3-29.08 23.8-38.03 10.11-7.24 22.5-11.37 34.98-11.15Z" fill="#fff"/><path d="M381.31 447.08c12.98-1.32 26.32 2.09 37.02 9.56 12.03 8.29 20.42 21.5 22.82 35.91 1.2 8.25.97 17.09-1.57 25.09-4.48 15.26-15.89 28.16-30.47 34.49-12.99 5.78-28.14 6.16-41.44 1.18-11.33-4.19-21.14-12.24-27.48-22.52-5.05-8.05-7.68-17.27-8.31-26.71-.33-12.56 3.39-25.14 10.99-35.21 9.07-12.24 23.28-20.27 38.44-21.79Z" fill="#000"/><path d="M376.49 453.67c18.14-4.16 37.8 3.04 49.17 17.7 8.71 11.04 12.73 26.33 9.55 40.13-1.95 9.98-7.12 19.22-14.55 26.16-8.03 7.65-18.6 12.27-29.63 13.27-19.64 1.82-39.23-9.24-48.03-26.86-7.99-15.54-6.9-34.79 2.78-49.34 7-10.7 18.2-18.4 30.71-21.06Z" fill="#fff"/><path d="M519.39 474.75c8.57-2.25 17.85 3.55 19.35 12.31 1.85 8.26-3.88 16.87-12.14 18.52-9.15 2.29-18.91-5.05-19.05-14.53-.72-7.51 4.64-14.5 11.84-16.3ZM403.4 485.62c6.37-2.18 13.28.49 17.27 5.71 4.54 5.93 4.18 14.9-1.03 20.31-5.02 5.79-14.49 6.76-20.65 2.39-4.26-2.85-6.94-7.87-6.92-13-.26-6.95 4.69-13.5 11.33-15.41Z" fill="#000"/></g><g transform="translate(-161 -83)"><g fill="#000"><path d="M456.01 380.37c2.26-.07 2.85 1.7 2.65 3.64-.5 4.68-.77 9.78-2.32 14.23-1.33.39-2.66.58-4.03.82-1.12-4.8-.01-10.22.71-15.09.36-1.71.77-3.82 2.99-3.6ZM476.79 386.65c.03 3.21-.36 6.36-.67 9.55 41.69.52 83.32.38 125.01.75 2.13.04 3.96.86 5.89 1.64-.59 1.48-.22 3.83-2.24 4.09-8.05 1.31-16.58.52-24.74.88-17.35.62-34.71.99-52.06 1.53-17.03.2-34.01 1.25-51.05 1.42-3.29.39-6.05-2.72-7.2-5.47.02-4.49 1.02-9.15 2.06-13.5 1.28-2.48 2.83-1.67 5-.89ZM439.84 392.18c-.11 4.87-.05 10.81-2.28 15.24-3.22 1.5-7.12 1.79-10.59 2.47-25.65 4.7-51.32 9.35-76.96 14.09-4.24.69-8.7 2.15-12.99 2.04-2.63-.48-3.33-3.75-.87-5.01 3.2-1.41 6.95-1.74 10.33-2.58 29.1-6.7 58.15-13.59 87.24-20.32.41-1.91.8-3.81 1.27-5.7 1.61-.21 3.23-.24 4.85-.23Z"/></g></g><g transform="translate(-161 -83)"><path d="M397.16 574.5c18.25-.16 37.53-.27 55.83-.38 15.65-.52 31.34-.22 47-.46 3.82-.04 7.34-.21 10.91 1.4 4.24 1.92 7.84 6.05 7.61 10.93.36 6.41-5.56 10.94-11.5 11.3-33 .13-66.01.4-99.01.56-4.37-.09-8.11.99-12.35-.48-.27-.76-.54-1.53-.82-2.29 1.66-5.65 2.44-11.14-.14-16.68-1.03-2.03.23-3.9 2.47-3.9Z" fill="#000"/><path d="M510.489 581.58c2.16 1.83 3.27 4.85 1.35 7.29-2.42 3.37-7.56 2.6-11.15 2.54-.04-4-.07-8.01-.08-12.02 3.35.28 7.2-.21 9.88 2.19ZM401.711 580.18c1.68-.01 3.36-.02 5.03-.02.16 4.03.22 8.05.15 12.09-1.71.01-3.41.01-5.12.02.41-4.09.45-8.01-.06-12.09ZM412.52 580.16c4.52-.07 9.04-.06 13.57-.04.12 3.99.23 7.99.27 11.99-4.4.08-8.8.09-13.2.09-.22-4.02-.39-8.03-.64-12.04ZM432.141 579.88c6.32-.04 12.64-.05 18.96-.1.07 4.01.1 8.02.09 12.03-6.33-.07-12.64.29-18.96.24-.13-4.06-.17-8.11-.09-12.17ZM456.801 579.78c6.23-.08 12.46-.06 18.69-.14.13 4.01.25 8.03.3 12.04-6.2.13-12.4.03-18.6.18-.29-4.03-.39-8.05-.39-12.08ZM481.391 579.5c4.48.17 8.96.07 13.44.03.03 4.01.06 8.03.01 12.05-4.43.01-8.85.13-13.28-.01-.05-4.03-.29-8.04-.17-12.07Z" fill="#fff"/></g><g transform="translate(-161 -83)"/><g transform="translate(-161 -83)"><path d="M754.859 186.13c14.91 13.66 25.21 32.12 28.95 52 5.36 42.98 5.42 85.9 11.9 128.86 4.51 31.79 10.67 66.12 25.47 94.89 10.32 20.51 21.8 40.49 31.79 61.17 8.63 17.69 13.95 37.27 14.83 56.95.89 11.46.38 23.45-.65 34.88-2.11 18.08-7.81 36.29-17.49 51.77-7.46 12.3-18.94 21.41-30.59 29.51-1.27.84-2.42 2.89-4.07 2.64-1.95-.08-2.91-2.08-2.52-3.83 10.86-21 13.11-46.4 6.57-69.07-.38-.97-.46-2.14-1.43-2.69-4.65 25.3-15.09 49.89-31.39 69.89-13.2 15.97-30.09 28.9-50.22 34.61-15.21 4.51-32.23 4.1-47.04-1.67-1.57-1.78-4.44-3.32-3.28-6.09 8.19-8.75 14.38-20.13 16.83-31.88-1.79.5-3.36 1.66-5.08 2.37-9.2 4.11-19.37 6.16-29.44 5.86-8.97.08-19.3-2.08-26.33-7.98-1.73-1.62-3.9-3.23-3.26-5.91 7.04-9.2 11.27-20.85 12.83-32.27.67-.92 1.86-1.46 2.76-2.14 26.06-18.21 47.33-42.21 63.45-69.54 1.06-2.29 3.48-2.79 5.69-1.92 13.69 4.19 28.66 2.46 41.31-4.1 14.51-7.44 25.69-20.6 31.11-35.94 3.53-9.45 4.3-19.52 3.26-29.5-1.8-13.96-8.77-27.13-19.84-35.94-5.9-5.66-14.04-9.12-21.98-10.7-11.01-2.45-22.92-.4-32.93 4.64 0 10.75-1.85 21.76-4.69 32.12-6.29 21.63-17.87 43.28-34.99 58.25-1.3 1.12-2.7 2.65-4.37 3.14-1.34.14-3.51-.9-3.5-2.47-.36-1.91 1.68-3.36 2.65-4.83 4.51-6.28 7.59-13.88 9.94-21.21 4.38-14.09 6.05-29.29 6.23-44-.32-26.06-5.09-52.36-16-76.15-.69-1.77-1.8-3.8-1.01-5.72 1.95-5.01 2.97-10.31 3.21-15.68-4.35 2.79-8.95 5.17-13.47 7.67-2.16 1.15-5.34 2.1-7.23-.02-1.19-3.4-1.02-7.54-.71-11.09.3-6.06.45-12.02-.02-18.07-6.88 3.68-13.31 7.46-20.62 10.4-2.44.91-5.32-.1-7.65-.94-11.58-4.69-21.05-13.78-29.28-22.94-4.65-5.4-8.97-10.7-11.78-17.33-2.6-5.98-3.63-12.16-3.68-18.67-13.67 7.3-31.08 6.14-46.1 6.25-15.95.26-32.18-.77-48.02 1.1-1.74.19-4.74-.78-4.85-2.87-.49-2.84 1.73-4.68 3.48-6.53-13.18 3.6-26.16 8.72-39.07 13.07-3.51.79-6.97 2.48-10.33.33-3.55-2.5-2.57-6.2-2.32-9.92-2.95-.08-6.01 1.32-8.78 2.24-13.5 5.21-27.18 9.88-40.97 14.27-9.56 2.87-19.08 5.05-29.14 4.8-4.78-.25-9.65.86-13.94 2.96-15.48.59-32.72-4.11-44.2-14.91-6.9-6.36-11.64-14.92-12.89-24.25-.62-6.78-.42-13.54 1.91-20.01 5.68-16.68 19.07-29.61 34.4-37.72 1.65-.77 3.89-2.39 5.68-1.32 1.76 1.03 1.96 3.35 1 4.98-14.57 15.12-16.16 40.04-5.77 57.86 4.46 7.27 10.89 14.19 19.55 16.06 2.58-15.05 10.8-29.04 20.48-40.63 13.73-16.47 31.23-30.31 49.38-41.61 34.84-21.45 74.34-35.78 114.89-41.32 22.38-2.75 44.5-3.04 66.47 2.66 17.03-22.1 42.49-37.25 70.03-41.66 30.68-5.39 63.88 3.6 86.87 24.84Z" fill="#000"/><path d="M680.979 165.89c27.94-1.65 56.25 9.18 75.23 29.91 10.91 11.74 18.43 26.62 21.63 42.31.6 6.95 1.88 13.8 2.21 20.78 1.23 9.67 1.4 19.44 2.49 29.11 1.15 22.58 3.1 45.52 5.66 67.99 3.98 29.06 8.08 57.12 17.65 85.02 5.74 16.68 14.05 31.38 22.24 46.87 7.79 14.92 16.15 29.7 22.87 45.13 11.92 27.38 13.56 58.58 9.4 87.85-3.21 18.49-10.4 37.48-22.45 52.07-4.56 4.96-9.7 9.84-15.26 13.66 4.4-12.31 6.31-25.55 5.71-38.59-.28-12.71-3.12-25.91-9.15-37.17-1.2-2.34-5.11-2.04-5.71.62-3.66 30.09-15.6 60.31-36.18 82.88-13.88 15.21-31.81 26.65-52.42 29.75-10.54 1.44-22.19.85-32.18-3.03 8.24-10.85 15.77-25.17 15.69-39.07.22-2.77-3.41-3.3-5.13-1.75-5.78 4.24-12.35 6.83-19.28 8.54-11.41 2.57-23.7 2.86-34.45-2.31-1.21-.8-3.79-1.83-4.24-3.16 5.64-9.12 9.61-19.19 11.48-29.76 1.48-1.96 4.12-3.13 5.98-4.77 23.89-17.86 43.76-40.5 58.94-66.15 4.83.34 9.41 1.81 14.29 1.88 21.53 1 42.52-10.21 55.09-27.47 8.44-11.28 13.18-25.01 14.02-39.03.62-18.88-6.34-37.62-20.86-50.05 3.54-5.84 5.3-12.29 6.53-18.95 3.13-19.67.15-40.73-4.39-59.99-4.74-18.55-11.52-36.48-20.99-53.15-3.58-15.09-8.4-29.8-15.79-43.49-12.52-23.74-31.87-43.69-55.43-56.59-1.2-.71-2.49-.84-3.83-1.09-10.19-14.34-26.8-23.36-44.34-24.36-5.05-.84-9.87-.08-14.9.04-3.35-2.5-7.01-3.22-11.1-3.47-6.01-.48-10.84 1.84-16.47-1.46 18.38-23.51 47.6-38.52 77.44-39.55Z" fill="rgba(62, 172, 44, 1)"/><path d="M593.99 208.04c1.09.36 2.29.26 2.9 1.34-2.41.64-4.74 1.47-7.07 2.36-26.33 7.83-51.59 19.56-75.02 33.85-8.19 5.03-16.1 10.58-23.49 16.73-1.54 1.24-1.61 3.33-.51 4.9 1.53.84 2.77.85 4.14-.29 14.24-11.67 30.15-21.13 46.54-29.44 19.52-9.74 40.3-18.27 61.65-22.94 6.38-1.02 13.52-2.57 19.89-1.36 2.27.38 4.28 1.72 6.5 2.38 3.02 1.26 6.2.24 9.48.28 4.33.09 8.76.22 13 1.19 12.54 2.14 24.06 9.03 31.97 18.98 10.1 12.53 14.95 28.43 17.34 44.12.95 7.61 1.83 15.19 1.56 22.86.04 2.17.09 5.7 3.12 5.51 2.15.08 2.86-1.6 2.84-3.49.14-21.14-2.99-41.81-12.35-60.94 14.14 8.34 26.53 19.89 36.41 32.97 14.63 19.46 23.37 42.14 27.79 65.96 4.75 25.45 4.3 52.36 1.01 77.98-.53 3.27-1.3 6.82-1.1 10.14 1.35 2.94 5.23 2.22 5.54-.98 1.68-8.89 2.66-18.12 3.17-27.15 1.6-16.27.9-32.1-.82-48.29.32 2.04 1.43 3.55 2.18 5.43 8.77 21.47 14.54 44.65 15.46 67.86.24 11.67-.62 25.34-6.35 35.79-16.15-11.54-37.91-13.4-55.95-5.27-.58-1.65-.54-4.26-2.82-4.41-1.72-.27-3.42 1.08-3.27 2.87.26 6.64.45 13.41-.26 20.03-2.75 20.73-10.51 40.9-22.58 57.99l-.93.46c.12-1.92.76-3.65 1.34-5.46 4.94-16.75 6.27-34.16 5.76-51.55-1.14-24.94-6.44-50.6-17.36-73.17 2.37-5.93 2.92-11.99 3.77-18.27.17-1.98.54-4.15.1-6.11-1.24-2.39-4.2-1.81-5.78-.12-3.21 3.02-6.97 5.12-10.87 7.1-1.59.75-3.27 2.12-5.05 2.15.03-3.68.41-7.33.27-11.03-.11-5.85.47-12.35-.98-18.05-2.51-2.19-5.03-.87-7.22.93-6.21 3.48-12.56 6.78-19.09 9.63-1.71.76-3.3.23-4.92-.44-9.51-4.16-17.84-11.61-24.82-19.17-5.18-5.79-10.66-12.06-13.41-19.42-4.13-10.59-3.4-22.9 2-32.91.98-1.68.46-4.21-1.69-4.47-2.75-.55-3.98 3.01-5.06 4.89-1.88 4.52-3.96 10.86-8.33 13.65-9.62 3.92-19.38 4.28-29.62 4.2-16.01-.04-32.01-.15-48.02.05-2.61.03-5.13.5-7.75.72 1.92-2.92 5.31-5.05 3.09-8.9-3.21-2.01-6.4-.74-9.84-.11-13.17 3.51-26.07 8.58-38.98 12.99-1.92.57-4.07 1.43-6.07 1.09.2-2.89 1.42-6.83-.91-9.16-2.1-2.2-4.77-1.96-7.52-1.43-6.94 1.76-13.21 4.65-20 7-12.89 4.49-25.88 9.28-39.17 12.47-7.57 1.74-15.13 1.93-22.85 2.07-3.66-.01-6.29 2.56-9.98 2.32-8.81.7-17.91-1.41-25.93-5.01-9.73-4.36-17.96-11.92-21.62-22.11-3.3-8.9-2.31-18.31 1.18-26.98 4.53-11.05 12.54-19.35 22.03-26.32-1.64 3.93-3.34 7.79-4.32 11.96-4.56 18.97.34 40.76 15.09 54.12 5.2 3.64 10 6.92 16.6 7.14 2.26-.11 3.76-1.33 4.19-3.58 3.36-20.57 18.01-39.2 32.77-53.21 26.21-24.39 59.37-42.09 93.02-53.84 13.1-4.47 26.44-8.04 40.01-10.71 24.65-4.54 51.41-6.16 75.97-.37Z" fill="rgba(62, 172, 44, 1)"/></g></g></svg>